<svg xmlns="http://www.w3.org/2000/svg" version="1.1" xmlns:xlink="http://www.w3.org/1999/xlink" xmlns:svgjs="http://svgjs.com/svgjs" width="500" height="300" preserveAspectRatio="none" viewBox="0 0 500 300"><g mask="url(&quot;#SvgjsMask1018&quot;)" fill="none"><rect width="500" height="300" x="0" y="0" fill="rgba(24, 106, 59, 1)"></rect><path d="M0,137.005C24.467,130.887,39.738,108.474,60.719,94.48C81.23,80.799,112.163,78.321,121.926,55.682C131.701,33.017,110.206,9.046,108.171,-15.553C105.946,-42.446,123.303,-71.687,109.472,-94.858C95.547,-118.186,65.464,-127.068,38.727,-131.89C13.598,-136.422,-12.702,-132.445,-35.531,-121.008C-56.289,-110.609,-64.351,-86.054,-82.261,-71.28C-105.312,-52.264,-145.991,-50.747,-155.173,-22.311C-164.043,5.159,-135.667,30.224,-123.486,56.394C-111.408,82.342,-107.937,115.015,-83.97,130.66C-59.979,146.321,-27.794,143.955,0,137.005" fill="#104728"></path><path d="M500 451.711C530.819 446.725 561.697 452.057 591.247 441.98400000000004 627.727 429.549 670.7 420.103 690.218 386.87 709.9110000000001 353.339 697.45 310.878 690.7429999999999 272.575 684.216 235.301 676.238 197.352 651.95 168.335 627.446 139.061 591.8340000000001 122.69900000000001 555.496 110.99600000000001 518.401 99.049 478.046 87.18799999999999 441.431 100.53200000000001 405.443 113.648 388.432 152.651 362.88800000000003 181.192 336.847 210.288 289.51800000000003 230.752 289.93899999999996 269.798 290.374 310.139 347.497 325.301 364.83500000000004 361.728 381.718 397.199 354.878 453.16200000000003 387.578 474.932 420.089 496.575 461.445 457.948 500 451.711" fill="#208d4f"></path></g><defs><mask id="SvgjsMask1018"><rect width="500" height="300" fill="#ffffff"></rect></mask></defs></svg>